<svg width="622" height="198" viewBox="0 0 622 198" fill="none" xmlns="http://www.w3.org/2000/svg">
<path d="M622 9H0V198H622V9Z" fill="black"/>
<path fill-rule="evenodd" clip-rule="evenodd" d="M22.7614 30.6556V175.652H179.426V30.6556H22.7614ZM15 23H188V183.874H15V23Z" fill="#7FDEF0"/>
<path fill-rule="evenodd" clip-rule="evenodd" d="M101.565 74.8535C86.554 74.8535 74.3857 87.8248 74.3857 103.826C74.3857 119.826 86.554 132.798 101.565 132.798C103.442 132.798 105.274 132.595 107.043 132.209L111.406 130.765L98.254 118.973L113.132 102.241L126.789 114.485L128.193 109.664C128.555 107.778 128.745 105.826 128.745 103.826C128.745 87.8248 116.576 74.8535 101.565 74.8535ZM101.565 47.9806C133.358 47.9806 159.131 72.9834 159.131 103.826C159.131 111.536 157.52 118.882 154.607 125.563L149.441 134.795L161 145.159L146.121 161.891L133.282 150.38L123.973 155.282C117.086 158.108 109.514 159.67 101.565 159.67C69.7729 159.67 44 134.668 44 103.826C44 72.9834 69.7729 47.9806 101.565 47.9806Z" fill="#7FDEF0"/>
<path d="M228.539 81.8688V150H213.923V64.9735H227.754L228.539 81.8688ZM225.553 104.265L218.795 104.029C218.848 98.214 219.607 92.8442 221.074 87.9197C222.541 82.9428 224.715 78.6207 227.596 74.9535C230.478 71.2863 234.066 68.4574 238.362 66.4666C242.658 64.4235 247.635 63.4019 253.293 63.4019C257.274 63.4019 260.942 63.9781 264.294 65.1307C267.647 66.2309 270.555 67.9859 273.017 70.3957C275.479 72.8056 277.392 75.8965 278.754 79.6685C280.116 83.4405 280.797 87.9983 280.797 93.3419V150H266.259V94.0491C266.259 89.5961 265.499 86.0337 263.98 83.3619C262.513 80.6901 260.418 78.7517 257.694 77.5468C254.969 76.2894 251.774 75.6608 248.106 75.6608C243.811 75.6608 240.222 76.4204 237.341 77.9397C234.459 79.4589 232.154 81.5545 230.425 84.2263C228.697 86.8981 227.439 89.9628 226.653 93.4205C225.92 96.8257 225.553 100.441 225.553 104.265ZM280.64 96.2494L270.895 99.2356C270.948 94.573 271.707 90.0938 273.174 85.7979C274.694 81.5021 276.868 77.6777 279.697 74.3249C282.578 70.972 286.114 68.3264 290.305 66.388C294.496 64.3973 299.29 63.4019 304.686 63.4019C309.244 63.4019 313.278 64.0043 316.788 65.2093C320.35 66.4142 323.336 68.274 325.746 70.7886C328.208 73.2509 330.068 76.4204 331.326 80.2972C332.583 84.1739 333.212 88.7841 333.212 94.1277V150H318.595V93.9705C318.595 89.2032 317.836 85.5098 316.316 82.8904C314.849 80.2186 312.754 78.3588 310.03 77.311C307.358 76.2109 304.162 75.6608 300.443 75.6608C297.247 75.6608 294.418 76.2109 291.956 77.311C289.493 78.4112 287.424 79.9304 285.748 81.8688C284.071 83.7548 282.788 85.9289 281.897 88.3912C281.059 90.8534 280.64 93.4729 280.64 96.2494ZM405.35 135.462V91.6916C405.35 88.3388 404.669 85.4312 403.307 82.969C401.998 80.4543 400.007 78.5159 397.335 77.1538C394.663 75.7917 391.363 75.1107 387.434 75.1107C383.766 75.1107 380.544 75.7394 377.768 76.9967C375.044 78.254 372.896 79.9042 371.324 81.9474C369.805 83.9905 369.045 86.1909 369.045 88.5483H354.507C354.507 85.5098 355.293 82.4975 356.865 79.5113C358.437 76.5252 360.689 73.8272 363.623 71.4173C366.609 68.9551 370.172 67.0167 374.31 65.6022C378.501 64.1353 383.164 63.4019 388.298 63.4019C394.48 63.4019 399.928 64.4496 404.643 66.5452C409.411 68.6407 413.13 71.8102 415.802 76.0537C418.526 80.2448 419.888 85.5098 419.888 91.8488V131.454C419.888 134.283 420.124 137.296 420.595 140.491C421.119 143.687 421.879 146.438 422.874 148.743V150H407.708C406.974 148.324 406.398 146.097 405.979 143.32C405.56 140.491 405.35 137.872 405.35 135.462ZM407.865 98.4498L408.022 108.666H393.327C389.189 108.666 385.495 109.006 382.247 109.687C378.999 110.316 376.275 111.285 374.075 112.595C371.874 113.904 370.198 115.555 369.045 117.545C367.893 119.484 367.316 121.763 367.316 124.382C367.316 127.054 367.919 129.49 369.124 131.69C370.329 133.891 372.136 135.646 374.546 136.955C377.008 138.213 380.021 138.841 383.583 138.841C388.036 138.841 391.965 137.898 395.37 136.012C398.776 134.126 401.474 131.821 403.464 129.097C405.508 126.373 406.608 123.727 406.765 121.16L412.973 128.154C412.606 130.354 411.611 132.79 409.987 135.462C408.363 138.134 406.189 140.701 403.464 143.163C400.793 145.573 397.597 147.59 393.877 149.214C390.21 150.786 386.071 151.572 381.461 151.572C375.699 151.572 370.643 150.445 366.295 148.193C361.999 145.94 358.646 142.928 356.236 139.156C353.879 135.331 352.7 131.062 352.7 126.347C352.7 121.789 353.591 117.781 355.372 114.323C357.153 110.813 359.72 107.906 363.073 105.601C366.426 103.243 370.46 101.462 375.175 100.257C379.89 99.0522 385.155 98.4498 390.97 98.4498H407.865ZM457.294 81.3187V182.69H442.677V64.9735H456.036L457.294 81.3187ZM514.58 106.78V108.43C514.58 114.612 513.847 120.348 512.38 125.639C510.913 130.878 508.765 135.436 505.936 139.313C503.16 143.19 499.728 146.202 495.642 148.35C491.556 150.498 486.867 151.572 481.576 151.572C476.18 151.572 471.412 150.681 467.274 148.9C463.135 147.119 459.625 144.525 456.744 141.12C453.862 137.715 451.557 133.629 449.828 128.861C448.152 124.094 446.999 118.724 446.371 112.752V103.951C446.999 97.6639 448.178 92.0322 449.907 87.0553C451.636 82.0784 453.915 77.8349 456.744 74.3249C459.625 70.7625 463.109 68.0644 467.195 66.2309C471.281 64.3449 475.996 63.4019 481.34 63.4019C486.684 63.4019 491.425 64.4496 495.563 66.5452C499.702 68.5883 503.186 71.5221 506.015 75.3464C508.844 79.1708 510.966 83.7548 512.38 89.0984C513.847 94.3897 514.58 100.283 514.58 106.78ZM499.964 108.43V106.78C499.964 102.536 499.519 98.5545 498.628 94.835C497.737 91.063 496.349 87.7625 494.463 84.9335C492.63 82.0522 490.272 79.7995 487.391 78.1754C484.509 76.499 481.078 75.6608 477.096 75.6608C473.429 75.6608 470.234 76.2894 467.509 77.5468C464.838 78.8041 462.559 80.5067 460.673 82.6546C458.787 84.7502 457.241 87.16 456.036 89.8842C454.884 92.5561 454.019 95.3326 453.443 98.214V118.567C454.491 122.234 455.958 125.692 457.844 128.94C459.73 132.136 462.244 134.729 465.388 136.72C468.531 138.658 472.486 139.627 477.254 139.627C481.183 139.627 484.562 138.815 487.391 137.191C490.272 135.515 492.63 133.236 494.463 130.354C496.349 127.473 497.737 124.172 498.628 120.453C499.519 116.681 499.964 112.673 499.964 108.43ZM582.633 127.447C582.633 125.351 582.161 123.413 581.218 121.632C580.328 119.798 578.468 118.148 575.639 116.681C572.863 115.162 568.671 113.852 563.066 112.752C558.351 111.756 554.081 110.578 550.257 109.216C546.485 107.853 543.263 106.203 540.591 104.265C537.972 102.327 535.955 100.048 534.54 97.4282C533.126 94.8088 532.419 91.744 532.419 88.234C532.419 84.8811 533.152 81.7116 534.619 78.7255C536.138 75.7394 538.26 73.0937 540.984 70.7886C543.761 68.4836 547.087 66.6762 550.964 65.3664C554.841 64.0567 559.163 63.4019 563.93 63.4019C570.741 63.4019 576.556 64.6068 581.376 67.0167C586.195 69.4265 589.889 72.6484 592.456 76.6824C595.023 80.6639 596.306 85.0907 596.306 89.9628H581.769C581.769 87.6053 581.061 85.3264 579.647 83.1261C578.285 80.8734 576.268 79.0136 573.596 77.5468C570.977 76.0799 567.755 75.3464 563.93 75.3464C559.896 75.3464 556.622 75.9751 554.107 77.2324C551.645 78.4374 549.838 79.9828 548.685 81.8688C547.585 83.7548 547.035 85.7456 547.035 87.8411C547.035 89.4127 547.297 90.8272 547.821 92.0846C548.397 93.2895 549.392 94.4158 550.807 95.4636C552.221 96.459 554.212 97.402 556.779 98.2926C559.346 99.1832 562.621 100.074 566.602 100.964C573.57 102.536 579.306 104.422 583.812 106.622C588.317 108.823 591.67 111.521 593.87 114.716C596.071 117.912 597.171 121.789 597.171 126.347C597.171 130.066 596.385 133.471 594.813 136.562C593.294 139.653 591.068 142.325 588.134 144.578C585.252 146.778 581.795 148.507 577.761 149.764C573.779 150.969 569.3 151.572 564.323 151.572C556.832 151.572 550.493 150.236 545.306 147.564C540.12 144.892 536.191 141.434 533.519 137.191C530.847 132.948 529.511 128.468 529.511 123.753H544.127C544.337 127.735 545.49 130.904 547.585 133.262C549.681 135.567 552.248 137.217 555.286 138.213C558.325 139.156 561.337 139.627 564.323 139.627C568.305 139.627 571.631 139.103 574.303 138.055C577.027 137.008 579.097 135.567 580.511 133.733C581.926 131.9 582.633 129.804 582.633 127.447Z" fill="white"/>
</svg>
